<?xml version="1.0" encoding="utf-8"?>
<!-- Generator: Adobe Illustrator 26.4.1, SVG Export Plug-In . SVG Version: 6.00 Build 0)  -->
<svg version="1.1" id="Layer_1" xmlns="http://www.w3.org/2000/svg" xmlns:xlink="http://www.w3.org/1999/xlink" x="0px" y="0px"
	 viewBox="0 0 198 198" style="enable-background:new 0 0 198 198;" xml:space="preserve">
<style type="text/css">
	.st0{fill-rule:evenodd;clip-rule:evenodd;fill:#3BB54B;}
	.st1{fill-rule:evenodd;clip-rule:evenodd;fill:#B2D236;}
	.st2{fill-rule:evenodd;clip-rule:evenodd;fill:#158A7E;}
</style>
<g>
	<path class="st0" d="M93.9,0c0.3,19.6,0,39-1,58.3C75.7,47.6,58.5,36.8,41.4,25.6C54.7,14,70.2,6.6,87.9,3.5C90,2.5,92,1.4,93.9,0z
		"/>
</g>
<g>
	<path class="st1" d="M104,0c1.8,1.4,3.8,2.6,6.1,3.5c17.7,3.1,33.1,10.5,46.5,22.1c-17.1,11.2-34.3,22-51.5,32.7
		C104,39,103.6,19.6,104,0z"/>
</g>
<g>
	<path class="st0" d="M34.3,32.2c20.1,12.6,40.1,25.3,60.1,38.2c0.8,11,0.7,21.8-0.5,32.7c-2.3,2-4.7,2-7.1,0
		C63.7,88.5,40.6,74,17.7,59.3c-0.7-1.3-0.7-2.7,0-4C22.6,47.1,28.2,39.4,34.3,32.2z"/>
</g>
<g>
	<path class="st1" d="M161.6,33.2c1.1-0.1,2.1,0,3,0.5c6,6.6,11.2,13.9,15.7,21.6c0.7,1.3,0.7,2.7,0,4c-24,15.4-48.3,30.5-72.8,45.2
		c-1.2-0.4-2.4-0.9-3.5-1.5c-1.2-10.9-1.3-21.7-0.5-32.7C122.8,57.8,142.2,45.3,161.6,33.2z"/>
</g>
<g>
	<path class="st0" d="M12.1,67.3C35.2,80.8,58,94.9,80.3,109.6c0.7,0.7,0.7,1.3,0,2c-8.5,5.5-17.1,10.9-25.8,16.1
		c-16.8-10.6-33.4-21.3-50-32.2C5.2,85.6,7.8,76.3,12.1,67.3z"/>
</g>
<g>
	<path class="st1" d="M183.9,67.3c1.9,0.1,3.1,1.1,3.5,3c2.7,7.2,4.9,14.6,6.6,22.1c0.1,1.9-0.6,3.4-2,4.5
		c-16.3,10.1-32.4,20.2-48.5,30.7c-8.7-5.2-17.3-10.6-25.8-16.1c-0.6-0.9-0.5-1.8,0.5-2.5C140.2,95.3,162.1,81.3,183.9,67.3z"/>
</g>
<g>
	<path class="st1" d="M194,105.5c1,0,2,0,3,0c1.7,18.5,1.2,36.9-1.5,55.3c-14.3-9.5-29-18.8-44-27.6
		C165.9,124.1,180,114.9,194,105.5z"/>
</g>
<g>
	<path class="st0" d="M2,105.5c14.8,8.6,29.2,17.7,43.4,27.1c-13.8,10-28.2,19.3-42.9,28.1C-0.6,142.3-0.8,123.9,2,105.5z"/>
</g>
<g>
	<path class="st2" d="M92.9,114.6c1,14.3,1.3,28.6,1,43.2c-5.8,2.2-9.6,6.2-11.6,12.1c-0.5,9.3-0.7,18.8-0.5,28.1
		c-14.9,0-29.6,0-44.5,0c-0.3-16.4,0-32.9,1-49.2C56.3,136.9,74.4,125.5,92.9,114.6z"/>
</g>
<g>
	<path class="st2" d="M105.1,114.6c18.4,11,36.6,22.3,54.6,34.2c1,16.4,1.3,32.9,1,49.2c-14.9,0-29.6,0-44.5,0
		c0.2-9.3,0-18.8-0.5-28.1c-2-5.9-6-10-11.6-12.1C103.6,143.1,104,128.8,105.1,114.6z"/>
</g>
<g>
	<path class="st0" d="M27.3,155.8c1,13.9,1.3,27.9,1,42.2c-5.8,0-11.4,0-17.2,0c-2.5-8.8-4.9-17.7-7.1-26.6
		C11.4,165.6,19.1,160.4,27.3,155.8z"/>
</g>
<g>
	<path class="st1" d="M170.7,155.8c8.1,4.7,15.9,9.8,23.2,15.6c-2.2,8.9-4.5,17.8-7.1,26.6c-5.8,0-11.4,0-17.2,0
		C169.3,183.7,169.7,169.7,170.7,155.8z"/>
</g>
</svg>
